<svg t="1736601560423" class="icon" viewBox="0 0 1024 1024" version="1.1" xmlns="http://www.w3.org/2000/svg" p-id="44811" width="200" height="200"><path d="M671.829333 130.56c147.413333 0 266.666667 122.88 266.624 271.573333l0.085334 3.584-0.341334 13.781334a222.592 222.592 0 0 1-16.341333 78.890666l-4.565333 11.690667a281.173333 281.173333 0 0 1-10.666667 22.698667l3.84-7.765334 0.085333 0.256-7.210666 14.08-5.418667 9.941334-11.477333 18.816-8.661334 13.269333c-33.109333 49.237333-78.805333 100.565333-134.101333 153.088a1835.946667 1835.946667 0 0 1-122.538667 105.984l-7.637333 5.973333-51.882667 39.509334a81.322667 81.322667 0 0 1-99.754666 0.170666c2.56 2.005333 0.426667 0.426667-4.437334-3.2l-55.082666-42.282666a1814.698667 1814.698667 0 0 1-122.197334-105.642667c-56.917333-54.058667-103.637333-106.88-136.917333-157.610667a414.762667 414.762667 0 0 1-36.266667-66.858666l1.408 2.986666-1.152-2.005333a38.058667 38.058667 0 0 1-2.56-6.4l-0.256-1.152-2.986666-7.424a239.232 239.232 0 0 1-14.250667-64.768L86.485333 418.133333l-0.512-4.522666L85.333333 403.84C85.333333 253.44 204.458667 130.602667 352 130.602667c56.746667 0.426667 111.317333 19.072 155.818667 52.352l4.053333 3.157333 4.096-3.157333a262.954667 262.954667 0 0 1 143.744-52.010667z m0.298667 85.333333l-9.514667 0.384a176.981333 176.981333 0 0 0-112.512 49.493334l-6.741333 6.997333-31.402667 34.218667-31.445333-34.176a177.28 177.28 0 0 0-128.853333-56.874667C252.16 215.893333 170.666667 299.946667 170.666667 402.133333c0.085333 1.962667 0.298667 3.925333 0.597333 5.845334l0.597333 7.04v2.133333c0.469333 19.754667 4.821333 39.296 12.757334 57.514667l5.76 13.226666c4.778667 10.197333 10.538667 20.736 17.237333 31.616l6.997333 11.050667c29.184 44.416 71.808 92.629333 124.330667 142.592a1730.986667 1730.986667 0 0 0 136.362667 116.096l36.352 27.648 52.906666-40.490667 27.605334-22.186666a1694.208 1694.208 0 0 0 92.757333-81.621334c51.2-48.597333 92.970667-95.530667 122.112-138.837333l4.906667-7.509333 10.624-17.066667 7.381333-13.482667 0.426667-1.578666 3.712-6.912c1.92-3.968 3.754667-8.106667 5.546666-12.629334l6.314667-16.768c4.266667-13.013333 6.656-26.453333 6.997333-39.381333l0.042667-7.04 0.213333-4.437333-0.213333-12.202667c-4.608-99.626667-84.352-178.816-180.821333-178.816z m-68.565333 137.941334l75.605333 75.562666c1.152-0.085333 2.304-0.128 3.498667-0.128h42.666666a42.666667 42.666667 0 0 1 0 85.333334h-42.666666l-3.669334-0.170667a42.666667 42.666667 0 0 1-45.226666-9.770667L576 446.933333l-119.338667 119.424a42.538667 42.538667 0 0 1-8.96 20.309334l-2.730666 3.328a31.36 31.36 0 0 1-48.768 0l-7.68-9.472-3.413334-2.986667a42.666667 42.666667 0 0 1-7.936-10.922667l-41.984-52.053333H298.666667a42.666667 42.666667 0 1 1 0-85.333333h38.613333a31.317333 31.317333 0 0 1 34.56 9.941333l40.746667 50.432 121.088-121.173333a42.666667 42.666667 0 0 1 69.930666-14.634667z" fill="#1890FF" p-id="44812"></path></svg>